<svg xmlns="http://www.w3.org/2000/svg" width="24" height="25" fill="none" viewBox="0 0 24 25">
  <path fill="#000" fill-rule="evenodd" d="M16.954 3.787V2.184a.75.75 0 0 0-1.5 0v3.263c0 .26.14.479.343.613a.726.726 0 0 1-.408.137.75.75 0 0 1-.75-.75V3.28a22.218 22.218 0 0 0-2.64-.145 20.55 20.55 0 0 0-3.053.205V2.184a.75.75 0 0 0-1.5 0v3.263c0 .26.14.479.343.613a.726.726 0 0 1-.408.137.75.75 0 0 1-.75-.75v-1.53C4.497 4.74 3.245 6.27 2.653 8.709h18.695c-.628-2.586-2.016-4.138-4.394-4.922Zm-.541 10.358a.754.754 0 0 1-.754-.75c0-.414.33-.75.745-.75h.009a.75.75 0 0 1 0 1.5Zm0 3.853a.754.754 0 0 1-.754-.75c0-.415.33-.75.745-.75h.009a.75.75 0 1 1 0 1.5Zm-4.4-3.853a.755.755 0 0 1-.754-.75c0-.414.332-.75.746-.75h.009a.75.75 0 0 1 0 1.5Zm0 3.853a.755.755 0 0 1-.754-.75c0-.415.332-.75.746-.75h.009a.75.75 0 1 1 0 1.5Zm-4.407-3.853a.755.755 0 0 1-.755-.75c0-.414.332-.75.746-.75h.009a.75.75 0 0 1 0 1.5Zm0 3.853a.755.755 0 0 1-.755-.75c0-.415.332-.75.746-.75h.009a.75.75 0 1 1 0 1.5Zm14.014-7.79H2.38a22.08 22.08 0 0 0-.154 2.702c0 7.215 2.558 9.773 9.774 9.773 7.217 0 9.775-2.558 9.775-9.773 0-.99-.053-1.882-.155-2.702Z" clip-rule="evenodd"/>
</svg>
