<svg width="19" height="18" viewBox="0 0 19 18" fill="none" xmlns="http://www.w3.org/2000/svg">
<path d="M9.32109 18C14.3373 18 18.4037 13.9706 18.4037 9C18.4037 4.02944 14.3373 0 9.32109 0C4.30493 0 0.238525 4.02944 0.238525 9C0.238525 13.9706 4.30493 18 9.32109 18Z" fill="#4482FF"/>
<path d="M9.32118 15.8569C13.143 15.8569 16.2412 12.7868 16.2412 8.99972C16.2412 5.21263 13.143 2.14258 9.32118 2.14258C5.49934 2.14258 2.40112 5.21263 2.40112 8.99972C2.40112 12.7868 5.49934 15.8569 9.32118 15.8569Z" fill="#3369D5"/>
<path d="M8.27458 11.8389C8.06528 11.6284 7.96063 11.3129 7.85598 10.8921L6.07715 11.1025C6.1818 11.9441 6.49575 12.6804 7.01889 13.1012C7.54204 13.6272 8.16993 13.8376 8.90238 13.9428V14.7843H9.84412V13.8376C10.6812 13.7324 11.4137 13.4167 11.8323 12.7856C12.3554 12.2597 12.5647 11.5232 12.5647 10.7869C12.5647 10.0506 12.3554 9.41933 11.9369 8.99861C11.5183 8.57778 10.7859 8.15706 9.73947 7.84144V5.42191C10.1581 5.63232 10.4719 5.94784 10.5766 6.47387L12.2507 6.26346C12.1461 5.63232 11.8322 5.10629 11.4137 4.68557C10.9951 4.26475 10.4719 4.05444 9.73947 3.94923V3.21289H8.79783V3.84402C8.06538 3.94923 7.43749 4.15964 6.91434 4.68557C6.49575 5.2115 6.1819 5.84273 6.1819 6.57907C6.1819 7.31541 6.3912 7.94665 6.80969 8.47258C7.22829 8.99851 7.85608 9.31412 8.69318 9.62974V12.47C8.58853 12.3648 8.37923 12.1544 8.27458 11.8389ZM9.84422 9.94526C10.2628 10.0505 10.5767 10.2609 10.6813 10.4712C10.786 10.6816 10.9953 10.9971 10.9953 11.2075C10.9953 11.5231 10.8906 11.8387 10.6813 12.0491C10.472 12.2595 10.1582 12.4699 9.84422 12.4699V9.94526ZM8.27458 7.21021C8.16993 6.9998 8.06528 6.78938 8.06528 6.57907C8.06528 6.36866 8.16993 6.05315 8.27458 5.84273C8.37923 5.63232 8.58853 5.52712 8.90238 5.42191V7.73624C8.58853 7.63103 8.37923 7.42062 8.27458 7.21021Z" fill="#FFF6DF"/>
</svg>
