<svg width="20" height="17" viewBox="0 0 20 17" fill="none" xmlns="http://www.w3.org/2000/svg">
<path d="M18.7413 6.48421V6.92225C18.7413 7.18505 18.5799 7.36029 18.3378 7.36029H16.8853V8.01732H18.5395C18.9834 8.01732 19.3465 7.62309 19.3465 7.14125V6.48421C19.3465 6.30898 19.2255 6.13379 19.0237 6.13379C18.8623 6.13375 18.7413 6.26517 18.7413 6.48421Z" fill="#FFE8F3"/>
<path d="M7.96915 14.631C7.88845 15.5071 7.20254 16.2079 6.35522 16.2079H6.31487C5.42719 16.2079 4.70093 15.4194 4.70093 14.4557V13.4482C5.66927 14.0177 6.79905 14.4119 7.96915 14.631Z" fill="#FFE8F3"/>
<path d="M2.76408 3.54807C3.77278 2.9348 4.86221 2.54057 5.8709 2.40919L3.65176 0C2.96585 0.744652 2.64307 1.66454 2.64307 2.62823C2.68338 2.89099 2.72373 3.24141 2.76408 3.54807Z" fill="#40596B"/>
<path d="M0.42367 5.87065C-0.141223 6.48392 -0.141223 8.8493 0.42367 9.46257C0.706098 9.76918 2.03761 9.46257 2.03761 9.46257V5.87065C1.99726 5.87065 0.706098 5.56403 0.42367 5.87065Z" fill="#FFE8F3"/>
<path d="M14.4645 13.4482V14.4557C14.4645 15.4194 13.7383 16.2079 12.8506 16.2079H12.8102C11.9629 16.2079 11.277 15.5071 11.1963 14.631C12.4067 14.4119 13.4962 14.0177 14.4645 13.4482Z" fill="#FFE8F3"/>
<path d="M9.5823 14.7612C14.2619 14.7612 18.0555 11.5841 18.0555 7.66503C18.0555 3.74592 14.2619 0.568848 9.5823 0.568848C4.9027 0.568848 1.10913 3.74592 1.10913 7.66503C1.10913 11.5841 4.9027 14.7612 9.5823 14.7612Z" fill="#FFB8D9"/>
<path d="M3.69195 6.22123C3.95936 6.22123 4.17614 5.98589 4.17614 5.69558C4.17614 5.40527 3.95936 5.16992 3.69195 5.16992C3.42454 5.16992 3.20776 5.40527 3.20776 5.69558C3.20776 5.98589 3.42454 6.22123 3.69195 6.22123Z" fill="#40596B"/>
<path d="M12.2459 2.36377H6.96023C6.79882 2.36377 6.63745 2.49519 6.63745 2.71419C6.63745 2.88942 6.75851 3.06461 6.96023 3.06461H12.2459C12.4073 3.06461 12.5283 2.93319 12.5283 2.71419C12.5283 2.539 12.4073 2.36377 12.2459 2.36377Z" fill="#FFE8F3"/>
</svg>
